<svg xmlns="http://www.w3.org/2000/svg" viewBox="0 7.800000190734863 110.8499984741211 39.280120849609375" data-asc="0.825" width="110.8499984741211" height="39.280120849609375"><defs/><g fill="#000000"><g transform="translate(0, 0)"><path d="M7.70 47.05Q0 46.40 0 39.15Q0 34.85 2.70 30.05Q4.30 27.15 6.73 24.40Q9.15 21.65 12.03 19.42Q14.90 17.20 17.93 15.90Q20.95 14.60 23.75 14.60Q28.70 14.60 28.70 18.25Q28.70 20.70 27.20 23.70Q25.70 26.70 24.15 27.50Q24.00 27.55 23.80 27.55Q23.65 27.55 23.65 27.45L25.30 24.75Q27.00 21.95 27.00 19.85Q27.00 18.35 26.20 17Q25.40 15.65 23.35 15.65Q20.85 15.65 18.23 17.05Q15.60 18.45 13.15 20.75Q10.70 23.05 8.70 25.82Q6.70 28.60 5.50 31.30Q2.95 37.05 2.95 40.60Q2.95 45.95 8.40 45.95Q13.60 45.95 22.50 39.25Q24.55 37.70 27.78 34.90Q31.00 32.10 35.35 28.10Q34.75 28.15 33.85 28.23Q32.95 28.30 31.75 28.50Q31.25 28.60 30.80 28.67Q30.35 28.75 29.95 28.75Q28.95 28.65 29.10 28.25Q29.30 26.40 31.00 26.40Q32.55 26.60 33.92 26.70Q35.30 26.80 36.55 26.80Q38.50 25 41.73 21.77Q44.95 18.55 49.40 13.85Q55.15 7.80 56.40 7.80Q56.95 7.80 56.95 8.80Q56.95 9.20 56.85 9.80Q56.75 10.40 56.55 11.20Q56.05 13.10 55.50 13.50Q53.95 14.60 52.92 16.32Q51.90 18.05 50.85 20.15Q49.80 22.30 48.92 23.97Q48.05 25.65 47.35 26.95L52.20 26.85Q54 26.85 54 27.10Q54 27.15 53.90 27.25Q53.05 27.80 46.70 28.25Q42.05 37.30 42.05 40.65Q42.05 42.95 43.50 42.95Q44.05 42.95 44.90 42.25Q45.70 41.60 45.90 41.60Q45.90 41.50 45.95 41.55Q46 41.60 45.90 41.60Q45.65 42.50 44.42 43.23Q43.20 43.95 41.85 43.95Q40.60 43.95 40.20 43.15Q39.80 42.35 39.80 40.95Q39.80 35.90 43.65 28.10L37.65 28.25Q30.95 34.80 24.20 39.75Q13.45 47.55 7.70 47.05M44.10 26.80Q44.70 25.65 46.50 22.63Q48.30 19.60 51.35 14.75L38.55 26.75L44.10 26.80ZM61.70 46.65Q57.80 46.65 55.50 44.83Q53.20 43 53.20 39.55Q53.20 37.05 54.27 34.83Q55.35 32.60 57.20 30.85Q59.05 29.10 61.42 28.10Q63.80 27.10 66.40 27.10Q69.05 27.10 70.58 28.30Q72.10 29.50 72.10 31.55Q72.10 33.05 70.15 35.45Q68.20 37.85 68.20 37.05Q68.20 36.85 68.35 36.65Q69.95 34.30 69.95 32.25Q69.95 30.40 68.78 29.30Q67.60 28.20 65.70 28.20Q63.60 28.20 61.67 29.23Q59.75 30.25 58.25 31.95Q56.75 33.65 55.90 35.70Q55.05 37.75 55.05 39.75Q55.05 42.50 56.82 43.92Q58.60 45.35 61.50 45.35Q64.45 45.35 67.17 44.27Q69.90 43.20 72.05 41.20Q74.60 38.80 77.20 34.20L81.55 26.35Q83.25 23.65 85.10 19.82Q86.95 16 89 11.05Q81.80 10.95 75 12.45Q67.75 14 64.25 16.75Q62.75 17.85 62.75 19.05Q62.75 20.10 63.92 20.77Q65.10 21.45 66.90 21.45Q67.95 21.45 69.40 21.15Q70.85 20.85 72.20 20.32Q73.55 19.80 74.25 19.15Q74.75 18.75 74.95 18.75Q75.35 18.75 75.10 19.15Q74.05 20.40 72.38 21.25Q70.70 22.10 68.85 22.52Q67 22.95 65.40 22.95Q62.95 22.95 61.57 21.97Q60.20 21 60.20 19.45Q60.20 17.65 62 15.95Q65.40 12.65 74.15 11.05Q77.55 10.45 81.45 10.17Q85.35 9.90 89.75 9.95Q90.85 9 91.85 9Q92.85 9 92.60 10.05Q95.75 10.25 98.97 10.85Q102.20 11.45 104.88 12.52Q107.55 13.60 109.20 15.17Q110.85 16.75 110.85 18.90Q110.85 21.20 109.33 23.27Q107.80 25.35 105.42 26.95Q103.05 28.55 100.45 29.50Q98.05 30.35 95.33 30.85Q92.60 31.35 89.95 31.35Q87.95 31.35 86.13 31.05Q84.30 30.75 82.80 30.10Q79.75 34.55 77.72 37.35Q75.70 40.15 74.60 41.25Q69.20 46.65 61.70 46.65M88.70 30.15Q90.55 30.15 92.38 29.77Q94.20 29.40 96.30 28.75Q98.40 28.05 100.55 26.98Q102.70 25.90 104.50 24.52Q106.30 23.15 107.40 21.57Q108.50 20 108.50 18.40Q108.50 16.60 107 15.27Q105.50 13.95 103.05 13.10Q100.60 12.25 97.75 11.77Q94.90 11.30 92.25 11.15L90.65 16.15Q89.80 18.30 88.25 21.15Q86.70 24 84.45 27.55L83.35 29.25Q83.70 29.45 84.13 29.57Q84.55 29.70 85.05 29.80Q86 30 86.90 30.07Q87.80 30.15 88.70 30.15Z"/></g></g></svg>