<svg xmlns="http://www.w3.org/2000/svg" viewBox="0 8.940000534057617 124.37000274658203 47.13999938964844" data-asc="0.91552734375" width="124.37000274658203" height="47.13999938964844"><defs/><g fill="#000000"><g transform="translate(0, 0)"><path d="M42.94 12.77Q41.50 13.31 40.30 13.65Q39.09 13.99 38.02 14.18Q36.96 14.38 35.97 14.45Q34.99 14.53 33.96 14.53Q32.30 14.53 30.52 14.29Q28.74 14.06 27.08 14.06Q24.85 14.06 22.81 14.64Q20.78 15.21 19.21 16.35Q17.65 17.48 16.72 19.19Q15.80 20.90 15.80 23.19Q15.80 24.58 16.24 25.72Q16.67 26.86 17.50 27.66Q18.33 28.47 19.53 28.91Q20.73 29.35 22.22 29.35Q23.90 29.35 25.15 28.93Q26.39 28.52 27.21 28.00Q28.03 27.49 28.44 27.05Q28.86 26.61 28.91 26.56L29.93 27.32Q29.86 27.42 29.25 28.00Q28.64 28.59 27.53 29.25Q26.42 29.91 24.79 30.44Q23.17 30.98 21.07 30.98Q19.70 30.98 18.27 30.62Q16.85 30.25 15.67 29.37Q14.50 28.49 13.75 27.05Q12.99 25.61 12.99 23.49Q12.99 21.75 13.53 20.29Q14.06 18.82 15.00 17.63Q15.94 16.43 17.25 15.52Q18.55 14.60 20.08 13.99Q21.61 13.38 23.32 13.06Q25.02 12.74 26.78 12.74Q27.54 12.74 28.55 12.83Q29.57 12.92 30.63 13.00Q31.69 13.09 32.71 13.17Q33.74 13.26 34.55 13.26Q35.45 13.26 36.49 13.15Q37.52 13.04 38.78 12.74Q40.04 12.45 41.55 11.93Q43.07 11.40 44.95 10.57L45.56 11.67Q45.56 11.67 45.04 12.18Q44.53 12.70 43.63 13.99Q42.72 15.28 41.50 17.53Q40.28 19.78 38.82 23.27Q37.35 26.78 35.85 30.24Q34.35 33.69 32.62 36.79Q30.88 39.89 28.82 42.54Q26.76 45.19 24.16 47.12Q21.56 49.05 18.35 50.13Q15.14 51.22 11.08 51.22Q8.67 51.22 6.63 50.66Q4.59 50.10 3.13 49.04Q1.66 47.97 0.83 46.46Q0 44.95 0 43.04Q0 40.67 1.00 38.90Q2.00 37.13 3.66 35.94Q5.32 34.74 7.51 34.14Q9.69 33.54 12.04 33.54Q14.28 33.54 16.55 33.98Q18.82 34.42 20.92 35.23L20.46 36.43Q18.90 35.84 17.02 35.53Q15.14 35.23 13.50 35.23Q10.99 35.23 9.01 35.77Q7.03 36.30 5.65 37.32Q4.27 38.33 3.55 39.77Q2.83 41.21 2.83 42.99Q2.83 44.78 3.67 46.06Q4.52 47.34 5.86 48.16Q7.20 48.97 8.85 49.37Q10.50 49.76 12.08 49.76Q15.04 49.76 17.42 48.96Q19.80 48.17 21.73 46.80Q23.66 45.43 25.18 43.60Q26.71 41.77 27.99 39.69Q29.27 37.60 30.35 35.38Q31.42 33.15 32.42 31.01Q34.16 27.00 35.96 23.46Q36.72 21.95 37.59 20.39Q38.45 18.82 39.36 17.40Q40.26 15.97 41.17 14.76Q42.09 13.55 42.94 12.77M67.77 18.70Q67.77 18.68 67.97 18.29Q68.16 17.90 68.40 17.27Q68.63 16.65 68.81 15.87Q68.99 15.09 68.99 14.28Q68.99 13.45 68.69 12.76Q68.38 12.06 67.86 11.56Q67.33 11.06 66.60 10.78Q65.87 10.50 65.04 10.50Q63.94 10.50 62.90 11.08Q61.87 11.67 60.73 13.00Q59.59 14.33 58.28 16.47Q56.96 18.60 55.27 21.70Q54.35 23.44 53.41 24.77Q52.47 26.10 51.54 27.10Q50.61 28.10 49.71 28.82Q48.80 29.54 47.95 30.03Q48.75 30.98 49.30 32.39Q49.85 33.79 49.85 35.84Q49.85 36.94 49.57 38.26Q49.29 39.58 48.96 40.92Q48.63 42.26 48.36 43.53Q48.10 44.80 48.10 45.78Q48.10 47.09 48.49 47.90Q48.88 48.71 49.49 49.16Q50.10 49.61 50.82 49.76Q51.54 49.90 52.17 49.90Q53.22 49.90 54.19 49.57Q55.15 49.24 55.91 48.83Q56.79 48.36 57.54 47.73L58.35 48.73Q58.28 48.78 57.70 49.21Q57.13 49.63 56.19 50.12Q55.25 50.61 54.05 51.00Q52.86 51.39 51.56 51.39Q50.22 51.39 49.06 50.93Q47.90 50.46 47.06 49.61Q46.22 48.75 45.73 47.58Q45.24 46.41 45.24 44.97Q45.24 43.60 45.58 42.26Q45.92 40.92 46.34 39.62Q46.75 38.33 47.09 37.11Q47.44 35.89 47.44 34.77Q47.44 33.79 47.20 32.76Q46.97 31.74 46.31 30.81Q45.19 31.15 44.17 31.37Q43.14 31.59 41.82 31.59Q40.72 31.59 40.09 31.34Q39.45 31.08 39.15 30.75Q38.84 30.42 38.76 30.09Q38.67 29.76 38.67 29.59Q38.67 28.56 39.59 27.84Q40.50 27.12 42.09 27.12Q42.94 27.12 44.12 27.50Q45.29 27.88 46.56 28.76Q47.90 27.81 49.04 26.37Q50.17 24.93 51.20 23.21Q52.22 21.48 53.20 19.59Q54.17 17.70 55.20 15.82Q57.03 12.48 59.35 10.71Q61.67 8.94 64.26 8.94Q65.38 8.94 66.47 9.29Q67.55 9.64 68.41 10.33Q69.26 11.01 69.79 12.00Q70.31 12.99 70.31 14.26Q70.31 15.19 70.10 16.06Q69.90 16.94 69.64 17.64Q69.38 18.33 69.15 18.79Q68.92 19.24 68.90 19.31L67.77 18.70M45.19 29.57Q44.56 29.08 43.71 28.74Q42.87 28.39 42.04 28.39Q41.09 28.39 40.56 28.72Q40.04 29.05 40.04 29.49Q40.04 29.76 40.39 30.03Q40.75 30.30 41.80 30.30Q42.55 30.30 43.47 30.11Q44.38 29.93 45.19 29.57ZM124.37 54.20Q124.29 54.25 123.71 54.54Q123.12 54.83 122.17 55.18Q121.22 55.52 120.00 55.80Q118.77 56.08 117.46 56.08Q115.31 56.08 113.60 55.32Q111.89 54.57 110.71 53.19Q109.52 51.81 108.89 49.87Q108.25 47.92 108.25 45.56Q108.25 43.29 108.81 40.56Q109.38 37.84 110.28 34.96Q111.18 32.08 112.32 29.20Q113.45 26.32 114.61 23.72Q115.77 21.12 116.82 18.96Q117.87 16.80 118.63 15.36Q117.26 16.92 115.50 18.96Q113.75 21.00 111.76 23.43Q109.77 25.85 107.62 28.60Q105.47 31.35 103.28 34.31Q101.10 37.28 98.95 40.39Q96.80 43.51 94.85 46.66L93.68 46.26Q94.04 42.29 94.89 38.37Q95.73 34.45 96.79 30.82Q97.85 27.20 99.04 24.01Q100.22 20.83 101.29 18.31Q99.66 20.56 98.03 23.18Q96.41 25.81 94.75 28.58Q93.09 31.35 91.33 34.14Q89.58 36.94 87.67 39.51Q85.77 42.09 83.65 44.32Q81.54 46.56 79.16 48.21Q76.78 49.85 74.08 50.81Q71.39 51.76 68.31 51.76Q65.94 51.76 64.01 51.05Q62.08 50.34 60.71 49.11Q59.33 47.88 58.58 46.22Q57.84 44.56 57.84 42.63Q57.84 40.75 58.44 39.22Q59.03 37.70 60.03 36.51Q61.04 35.33 62.37 34.46Q63.70 33.59 65.16 33.03Q66.63 32.47 68.13 32.20Q69.63 31.93 71.00 31.93Q73.83 31.93 76.42 32.60Q79.00 33.28 81.40 34.99L80.54 35.94Q80.52 35.91 79.91 35.49Q79.30 35.06 78.15 34.55Q77.00 34.03 75.31 33.62Q73.61 33.20 71.44 33.20Q69.34 33.20 67.37 33.76Q65.41 34.33 63.90 35.46Q62.40 36.60 61.50 38.32Q60.60 40.04 60.60 42.36Q60.60 44.02 61.24 45.43Q61.89 46.85 63.04 47.89Q64.18 48.93 65.80 49.51Q67.41 50.10 69.36 50.10Q72.29 50.10 74.98 48.85Q77.66 47.61 80.15 45.48Q82.64 43.36 84.95 40.53Q87.26 37.70 89.39 34.55Q91.53 31.40 93.53 28.08Q95.53 24.76 97.41 21.67Q99.29 18.58 101.07 15.88Q102.86 13.18 104.57 11.23L105.66 11.89Q104.59 15.16 103.81 17.64Q103.03 20.12 102.45 22.00Q101.88 23.88 101.48 25.24Q101.07 26.61 100.78 27.69Q100.49 28.76 100.26 29.63Q100.02 30.49 99.79 31.35Q99.56 32.20 99.27 33.15Q98.97 34.11 98.56 35.36Q98.14 36.62 97.58 38.27Q97.02 39.92 96.22 42.16Q98.27 39.06 100.43 36.06Q102.59 33.06 104.74 30.25Q106.88 27.44 108.95 24.88Q111.01 22.31 112.85 20.12Q114.70 17.92 116.25 16.13Q117.80 14.33 118.95 13.06Q120.09 11.79 120.74 11.08Q121.39 10.38 121.41 10.35L122.44 11.11Q121.00 14.67 119.58 18.25Q118.16 21.83 116.86 25.22Q115.55 28.61 114.43 31.76Q113.31 34.91 112.48 37.66Q111.65 40.41 111.17 42.66Q110.69 44.92 110.69 46.53Q110.69 48.44 111.15 49.98Q111.60 51.51 112.45 52.59Q113.31 53.66 114.56 54.24Q115.82 54.81 117.41 54.81Q118.60 54.81 119.74 54.54Q120.87 54.27 121.75 53.96Q122.63 53.64 123.17 53.37Q123.71 53.10 123.73 53.10L124.37 54.20Z"/></g></g></svg>